<svg width="479" height="120" fill="none" xmlns="http://www.w3.org/2000/svg"><path d="M193 16a3 3 0 0 1 3-3h38a3 3 0 0 1 3 3v71h-44V16Z" fill="#CD5757"/><rect x="200" y="22" width="9" height="9" rx="3" fill="#FAB755"/><rect x="221" y="22" width="9" height="9" rx="3" fill="#FAB755"/><rect x="200" y="71" width="9" height="9" rx="3" fill="#564289"/><rect x="221" y="71" width="9" height="8" rx="3" fill="#564289"/><rect x="200" y="47" width="9" height="9" rx="3" fill="#564289"/><rect x="200" y="34" width="9" height="9" rx="3" fill="#564289"/><rect x="200" y="59" width="9" height="9" rx="3" fill="#564289"/><rect x="221" y="47" width="9" height="9" rx="3" fill="#564289"/><path d="M42.837 61.72h-28.24V87h-6.72V31.16h6.72V55.8h28.24V31.16h6.72V87h-6.72V61.72ZM85.32 87.96c-3.627 0-6.907-.613-9.84-1.84a21.046 21.046 0 0 1-7.44-5.52c-2.027-2.453-3.6-5.467-4.72-9.04-1.12-3.627-1.68-7.787-1.68-12.48 0-4.693.56-8.827 1.68-12.4 1.12-3.573 2.693-6.587 4.72-9.04 2.08-2.453 4.56-4.293 7.44-5.52 2.933-1.28 6.213-1.92 9.84-1.92 3.573 0 6.827.64 9.76 1.92a19.044 19.044 0 0 1 7.44 5.52c2.08 2.453 3.68 5.467 4.8 9.04 1.12 3.573 1.68 7.707 1.68 12.4 0 4.693-.56 8.853-1.68 12.48-1.12 3.573-2.72 6.587-4.8 9.04-2.027 2.4-4.507 4.24-7.44 5.52-2.933 1.227-6.187 1.84-9.76 1.84Zm0-6c2.4 0 4.613-.427 6.64-1.28a14.44 14.44 0 0 0 5.2-3.68c1.493-1.6 2.64-3.52 3.44-5.76.8-2.24 1.2-4.747 1.2-7.52v-9.28c0-2.773-.4-5.28-1.2-7.52-.8-2.24-1.947-4.16-3.44-5.76a14.44 14.44 0 0 0-5.2-3.68c-2.027-.853-4.24-1.28-6.64-1.28-2.4 0-4.613.427-6.64 1.28a15.22 15.22 0 0 0-5.28 3.68c-1.44 1.6-2.56 3.52-3.36 5.76-.8 2.24-1.2 4.747-1.2 7.52v9.28c0 2.773.4 5.28 1.2 7.52.8 2.24 1.92 4.16 3.36 5.76a15.22 15.22 0 0 0 5.28 3.68c2.027.853 4.24 1.28 6.64 1.28Zm79.281-42h-.4l-4.72 9.36-13.36 24.32-13.36-24.32-4.72-9.36h-.4V87h-6.56V31.16h8.96l16 30.08h.4l16.08-30.08h8.64V87h-6.56V39.96ZM266.684 87l-13.6-55.84h7.12l6 26.88 4.64 20.88h.16l5.2-20.88 7.04-26.88h7.68l6.8 26.88 5.2 20.8h.24l4.8-20.8 6.32-26.88h6.88L306.844 87h-7.44l-7.28-27.84-5.12-20.48h-.16l-5.28 20.48-7.44 27.84h-7.44Zm98.138 0-5.6-16.48h-22.56l-5.6 16.48h-6.8l19.52-55.84h8.56L371.862 87h-7.04Zm-16.72-49.6h-.4l-9.44 27.2h19.28l-9.44-27.2Zm39.73 49.6h-6.72V31.16h22.24c4.907 0 8.72 1.36 11.44 4.08 2.773 2.72 4.16 6.64 4.16 11.76 0 4.107-.96 7.493-2.88 10.16-1.867 2.613-4.64 4.347-8.32 5.2l12.8 24.64h-7.6l-12.08-24h-13.04v24Zm15.52-29.76c2.667 0 4.72-.693 6.16-2.08 1.493-1.387 2.24-3.36 2.24-5.92v-4.16c0-2.56-.747-4.533-2.24-5.92-1.44-1.387-3.493-2.08-6.16-2.08h-15.52v20.16h15.52Zm28.932-26.08h18.72c3.466 0 6.613.587 9.44 1.76a18.597 18.597 0 0 1 7.2 5.28c2.026 2.293 3.573 5.2 4.64 8.72 1.066 3.467 1.6 7.52 1.6 12.16 0 4.64-.534 8.72-1.6 12.24-1.067 3.467-2.614 6.373-4.64 8.72-1.974 2.293-4.374 4.027-7.2 5.2-2.827 1.173-5.974 1.76-9.44 1.76h-18.72V31.16Zm18.72 49.92c2.293 0 4.4-.373 6.32-1.12 1.92-.8 3.573-1.947 4.96-3.44 1.386-1.493 2.453-3.307 3.2-5.44.8-2.187 1.2-4.667 1.2-7.44v-9.12c0-2.773-.4-5.227-1.2-7.36-.747-2.187-1.814-4.027-3.2-5.52a13.218 13.218 0 0 0-4.96-3.36c-1.92-.8-4.027-1.2-6.32-1.2h-12v44h12Z" fill="#fff"/></svg>